<svg width="1200" height="675" viewBox="0 0 1200 675" fill="none" xmlns="http://www.w3.org/2000/svg">
  <rect width="1200" height="675" rx="32" fill="#EAF3FF"/>
  <rect x="80" y="120" width="1040" height="420" rx="28" fill="url(#paint0_linear_1_2)"/>
  <rect x="130" y="172" width="300" height="230" rx="20" fill="#F9FCFF"/>
  <rect x="460" y="172" width="270" height="196" rx="20" fill="#D8EFFF"/>
  <rect x="750" y="172" width="300" height="230" rx="20" fill="#B8D8F6"/>
  <path d="M240 410C240 362.771 276.771 326 324 326H356C403.229 326 440 362.771 440 410V444H240V410Z" fill="#1E4F8B"/>
  <rect x="220" y="444" width="240" height="92" rx="16" fill="#0F2E5D"/>
  <rect x="500" y="378" width="160" height="120" rx="18" fill="#2766B7"/>
  <rect x="810" y="380" width="180" height="120" rx="18" fill="#1E4F8B"/>
  <circle cx="930" cy="220" r="56" fill="#FDFEFF" fill-opacity="0.92"/>
  <path d="M928 188V252" stroke="#2661B3" stroke-width="16" stroke-linecap="round"/>
  <path d="M896 220H960" stroke="#2661B3" stroke-width="16" stroke-linecap="round"/>
  <defs>
    <linearGradient id="paint0_linear_1_2" x1="80" y1="120" x2="1120" y2="540" gradientUnits="userSpaceOnUse">
      <stop stop-color="#6AB0FF"/>
      <stop offset="1" stop-color="#1F4F9A"/>
    </linearGradient>
  </defs>
</svg>
